<svg width="89" height="32" viewBox="0 0 89 32" fill="none" xmlns="http://www.w3.org/2000/svg">
<rect x="0.856689" width="87.9285" height="32" rx="4.83019" fill="#1A1A1A"/>
<path d="M21.0114 16.4855C21.0287 15.1335 21.752 13.8542 22.8994 13.1461C22.1755 12.1083 20.9632 11.4503 19.7018 11.4107C18.3565 11.2689 17.0523 12.2188 16.3667 12.2188C15.6679 12.2188 14.6124 11.4248 13.4758 11.4482C11.9942 11.4963 10.6131 12.3419 9.89227 13.6422C8.34284 16.3353 9.49857 20.2932 10.9828 22.47C11.7254 23.536 12.5933 24.7267 13.7288 24.6845C14.8401 24.6382 15.2551 23.9731 16.5965 23.9731C17.9254 23.9731 18.3148 24.6845 19.4734 24.6576C20.6658 24.6382 21.4171 23.5869 22.1337 22.5109C22.6672 21.7513 23.0778 20.9119 23.3502 20.0236C21.9488 19.4286 21.013 18.0129 21.0114 16.4855Z" fill="white"/>
<path d="M18.8229 9.97906C19.4731 9.19553 19.7934 8.18843 19.7158 7.17163C18.7225 7.27636 17.805 7.75295 17.1461 8.50642C16.5017 9.2426 16.1664 10.232 16.2298 11.2099C17.2234 11.2202 18.2003 10.7565 18.8229 9.97906Z" fill="white"/>
<path d="M60.6464 15.089V16.7273H59.6235V17.8017H60.6464V21.4523C60.6464 22.6989 61.2082 23.1975 62.6213 23.1975C62.8697 23.1975 63.1062 23.1678 63.3131 23.1322V22.0697C63.1357 22.0875 63.0234 22.0994 62.8283 22.0994C62.1956 22.0994 61.9177 21.8026 61.9177 21.1259V17.8017H63.3131V16.7273H61.9177V15.089H60.6464Z" fill="white"/>
<path d="M66.9131 23.2865C68.7934 23.2865 69.9464 22.0222 69.9464 19.9268C69.9464 17.8433 68.7875 16.573 66.9131 16.573C65.0328 16.573 63.8739 17.8433 63.8739 19.9268C63.8739 22.0222 65.0269 23.2865 66.9131 23.2865ZM66.9131 22.1528C65.8074 22.1528 65.1866 21.3396 65.1866 19.9268C65.1866 18.5259 65.8074 17.7068 66.9131 17.7068C68.0129 17.7068 68.6397 18.5259 68.6397 19.9268C68.6397 21.3336 68.0129 22.1528 66.9131 22.1528Z" fill="white"/>
<path d="M70.9329 23.1619H72.2042V19.3451C72.2042 18.4369 72.8842 17.8255 73.848 17.8255C74.0726 17.8255 74.4511 17.867 74.5575 17.9026V16.6442C74.4215 16.6086 74.1791 16.5908 73.9899 16.5908C73.1502 16.5908 72.4348 17.0538 72.2515 17.689H72.1569V16.6977H70.9329V23.1619Z" fill="white"/>
<path d="M77.714 17.6593C78.6542 17.6593 79.2691 18.3182 79.2987 19.3332H76.0466C76.1175 18.3241 76.7739 17.6593 77.714 17.6593ZM79.2928 21.4167C79.0562 21.9213 78.53 22.2003 77.7613 22.2003C76.7443 22.2003 76.088 21.482 76.0466 20.3483V20.277H80.5936V19.8318C80.5936 17.8017 79.5115 16.573 77.7199 16.573C75.9047 16.573 74.7517 17.8848 74.7517 19.9505C74.7517 22.0163 75.881 23.2865 77.7258 23.2865C79.1981 23.2865 80.227 22.5742 80.5167 21.4167H79.2928Z" fill="white"/>
<path d="M52.3097 20.7747C52.4077 22.3621 53.7254 23.3772 55.6865 23.3772C57.7824 23.3772 59.0939 22.3129 59.0939 20.6148C59.0939 19.2797 58.3462 18.5414 56.5322 18.1169L55.5578 17.877C54.4056 17.6062 53.9398 17.2433 53.9398 16.6096C53.9398 15.8097 54.663 15.2868 55.7478 15.2868C56.7774 15.2868 57.4883 15.7974 57.617 16.6157H58.953C58.8733 15.1207 57.5618 14.0686 55.7661 14.0686C53.8357 14.0686 52.5487 15.1207 52.5487 16.7018C52.5487 18.0062 53.278 18.7814 54.8775 19.1567L56.0174 19.4335C57.188 19.7104 57.7028 20.1164 57.7028 20.7932C57.7028 21.5807 56.8938 22.1529 55.7907 22.1529C54.6079 22.1529 53.7866 21.6176 53.6702 20.7747H52.3097Z" fill="white"/>
<path d="M39.1407 16.5908C38.2656 16.5908 37.5087 17.0301 37.1185 17.7661H37.0239V16.6977H35.7999V25.3107H37.0712V22.1825H37.1717C37.5087 22.8651 38.236 23.2687 39.1525 23.2687C40.7785 23.2687 41.8133 21.9806 41.8133 19.9268C41.8133 17.873 40.7785 16.5908 39.1407 16.5908ZM38.78 22.1231C37.7157 22.1231 37.0475 21.2802 37.0475 19.9327C37.0475 18.5793 37.7157 17.7364 38.7859 17.7364C39.862 17.7364 40.5065 18.5615 40.5065 19.9268C40.5065 21.298 39.862 22.1231 38.78 22.1231Z" fill="white"/>
<path d="M46.2616 16.5908C45.3865 16.5908 44.6297 17.0301 44.2394 17.7661H44.1448V16.6977H42.9209V25.3107H44.1921V22.1825H44.2927C44.6297 22.8651 45.357 23.2687 46.2735 23.2687C47.8995 23.2687 48.9343 21.9806 48.9343 19.9268C48.9343 17.873 47.8995 16.5908 46.2616 16.5908ZM45.901 22.1231C44.8366 22.1231 44.1685 21.2802 44.1685 19.9327C44.1685 18.5793 44.8366 17.7364 45.9069 17.7364C46.983 17.7364 47.6275 18.5615 47.6275 19.9268C47.6275 21.298 46.983 22.1231 45.901 22.1231Z" fill="white"/>
<path d="M33.519 23.1619H34.9776L31.7847 14.2839H30.3077L27.1147 23.1619H28.5243L29.3394 20.8055H32.7101L33.519 23.1619ZM30.9757 15.8959H31.0799L32.3607 19.6489H29.6887L30.9757 15.8959Z" fill="white"/>
<path d="M27.0796 8.02203V11.5313H28.3417C29.3833 11.5313 29.9865 10.8868 29.9865 9.7657C29.9865 8.66162 29.3785 8.02203 28.3417 8.02203H27.0796ZM27.6222 8.51814H28.2811C29.0054 8.51814 29.4342 8.9802 29.4342 9.77299C29.4342 10.578 29.0127 11.0351 28.2811 11.0351H27.6222V8.51814Z" fill="white"/>
<path d="M31.8339 11.5823C32.6042 11.5823 33.0766 11.0643 33.0766 10.2059C33.0766 9.35228 32.6018 8.83185 31.8339 8.83185C31.0635 8.83185 30.5887 9.35228 30.5887 10.2059C30.5887 11.0643 31.0611 11.5823 31.8339 11.5823ZM31.8339 11.1178C31.3809 11.1178 31.1265 10.7847 31.1265 10.2059C31.1265 9.63194 31.3809 9.29634 31.8339 9.29634C32.2844 9.29634 32.5412 9.63194 32.5412 10.2059C32.5412 10.7822 32.2844 11.1178 31.8339 11.1178Z" fill="white"/>
<path d="M37.0993 8.88292H36.5785L36.1085 10.9038H36.0673L35.5247 8.88292H35.0257L34.4831 10.9038H34.4443L33.9719 8.88292H33.4438L34.1706 11.5313H34.7059L35.2485 9.58088H35.2897L35.8348 11.5313H36.375L37.0993 8.88292Z" fill="white"/>
<path d="M37.6991 11.5313H38.2199V9.98214C38.2199 9.56872 38.4646 9.31093 38.8497 9.31093C39.2349 9.31093 39.419 9.52251 39.419 9.94809V11.5313H39.9398V9.81677C39.9398 9.18691 39.6152 8.83185 39.0266 8.83185C38.6293 8.83185 38.3677 9.00938 38.2393 9.30364H38.2005V8.88292H37.6991V11.5313Z" fill="white"/>
<path d="M40.7601 11.5313H41.2809V7.84937H40.7601V11.5313Z" fill="white"/>
<path d="M43.2397 11.5823C44.01 11.5823 44.4824 11.0643 44.4824 10.2059C44.4824 9.35228 44.0076 8.83185 43.2397 8.83185C42.4694 8.83185 41.9946 9.35228 41.9946 10.2059C41.9946 11.0643 42.4669 11.5823 43.2397 11.5823ZM43.2397 11.1178C42.7867 11.1178 42.5323 10.7847 42.5323 10.2059C42.5323 9.63194 42.7867 9.29634 43.2397 9.29634C43.6903 9.29634 43.947 9.63194 43.947 10.2059C43.947 10.7822 43.6903 11.1178 43.2397 11.1178Z" fill="white"/>
<path d="M46.0342 11.1349C45.7508 11.1349 45.5449 10.9962 45.5449 10.7579C45.5449 10.5245 45.7096 10.4004 46.073 10.3761L46.7173 10.3348V10.5561C46.7173 10.8844 46.4267 11.1349 46.0342 11.1349ZM45.901 11.575C46.2474 11.575 46.5357 11.4243 46.6931 11.1592H46.7343V11.5313H47.2357V9.72192C47.2357 9.16259 46.8627 8.83185 46.2014 8.83185C45.603 8.83185 45.1767 9.12368 45.1234 9.57844H45.6272C45.6854 9.39119 45.8864 9.28418 46.1771 9.28418C46.5332 9.28418 46.7173 9.44226 46.7173 9.72192V9.95052L46.0027 9.99187C45.3753 10.0308 45.0216 10.3056 45.0216 10.7822C45.0216 11.2662 45.3923 11.575 45.901 11.575Z" fill="white"/>
<path d="M49.0032 11.575C49.3665 11.575 49.6742 11.4024 49.8316 11.113H49.8728V11.5313H50.3718V7.84937H49.851V9.30364H49.8123C49.6693 9.01181 49.3641 8.83915 49.0032 8.83915C48.337 8.83915 47.9082 9.3693 47.9082 10.2059C47.9082 11.0449 48.3321 11.575 49.0032 11.575ZM49.1509 9.3085C49.587 9.3085 49.8607 9.65626 49.8607 10.2083C49.8607 10.7628 49.5894 11.1057 49.1509 11.1057C48.71 11.1057 48.446 10.7676 48.446 10.2059C48.446 9.64897 48.7125 9.3085 49.1509 9.3085Z" fill="white"/>
<path d="M53.7492 11.5823C54.5195 11.5823 54.9919 11.0643 54.9919 10.2059C54.9919 9.35228 54.5171 8.83185 53.7492 8.83185C52.9789 8.83185 52.5041 9.35228 52.5041 10.2059C52.5041 11.0643 52.9764 11.5823 53.7492 11.5823ZM53.7492 11.1178C53.2962 11.1178 53.0419 10.7847 53.0419 10.2059C53.0419 9.63194 53.2962 9.29634 53.7492 9.29634C54.1998 9.29634 54.4566 9.63194 54.4566 10.2059C54.4566 10.7822 54.1998 11.1178 53.7492 11.1178Z" fill="white"/>
<path d="M55.6813 11.5313H56.2022V9.98214C56.2022 9.56872 56.4468 9.31093 56.832 9.31093C57.2172 9.31093 57.4013 9.52251 57.4013 9.94809V11.5313H57.9221V9.81677C57.9221 9.18691 57.5975 8.83185 57.0088 8.83185C56.6116 8.83185 56.3499 9.00938 56.2215 9.30364H56.1828V8.88292H55.6813V11.5313Z" fill="white"/>
<path d="M60.3208 8.22388V8.89508H59.9017V9.33525H60.3208V10.8309C60.3208 11.3416 60.5509 11.5458 61.1299 11.5458C61.2316 11.5458 61.3285 11.5337 61.4133 11.5191V11.0838C61.3406 11.0911 61.2946 11.0959 61.2147 11.0959C60.9555 11.0959 60.8416 10.9744 60.8416 10.6971V9.33525H61.4133V8.89508H60.8416V8.22388H60.3208Z" fill="white"/>
<path d="M62.1124 11.5313H62.6333V9.98457C62.6333 9.58331 62.8707 9.31337 63.297 9.31337C63.6652 9.31337 63.8614 9.52737 63.8614 9.95052V11.5313H64.3823V9.82163C64.3823 9.19177 64.0359 8.83428 63.4739 8.83428C63.0766 8.83428 62.798 9.01181 62.6696 9.3085H62.6284V7.84937H62.1124V11.5313Z" fill="white"/>
<path d="M66.2611 9.27689C66.6463 9.27689 66.8982 9.54683 66.9103 9.96268H65.578C65.6071 9.54926 65.8759 9.27689 66.2611 9.27689ZM66.9079 10.8163C66.811 11.023 66.5954 11.1373 66.2805 11.1373C65.8638 11.1373 65.5949 10.843 65.578 10.3785V10.3494H67.4408V10.167C67.4408 9.33525 66.9975 8.83185 66.2635 8.83185C65.5198 8.83185 65.0475 9.3693 65.0475 10.2156C65.0475 11.0619 65.5102 11.5823 66.266 11.5823C66.8691 11.5823 67.2906 11.2905 67.4093 10.8163H66.9079Z" fill="white"/>
</svg>
