<svg width="86" height="32" viewBox="0 0 86 32" fill="none" xmlns="http://www.w3.org/2000/svg">
<rect width="85.8566" height="32" rx="4.83019" fill="#1A1A1A"/>
<g filter="url(#filter0_ii_65_10)">
<path d="M8.56909 8.1036C8.38358 8.30072 8.27393 8.60665 8.27393 9.00281V23.157C8.27393 23.5538 8.38358 23.8591 8.56909 24.0562L8.61627 24.1023L16.5144 16.1734V16.0799V15.9865L8.61627 8.05688L8.56909 8.1036Z" fill="url(#paint0_linear_65_10)"/>
<path d="M19.1464 18.8169L16.5142 16.1731V16.0797V15.9862L19.1471 13.343L19.2064 13.3769L22.3257 15.1561C23.2163 15.6643 23.2163 16.4957 22.3257 17.0045L19.2064 18.7837L19.1464 18.8169Z" fill="url(#paint1_linear_65_10)"/>
<g filter="url(#filter1_i_65_10)">
<path d="M19.2066 18.7829L16.5138 16.0796L8.56909 24.0559C8.86235 24.3682 9.34749 24.4066 9.89384 24.0956L19.2066 18.7829Z" fill="url(#paint2_linear_65_10)"/>
</g>
<path d="M19.2066 13.3765L9.89384 8.06445C9.34749 7.75277 8.86235 7.79181 8.56909 8.10413L16.5144 16.0805L19.2066 13.3765Z" fill="url(#paint3_linear_65_10)"/>
</g>
<path d="M43.0257 16.8541C41.6095 16.8541 40.4553 17.9307 40.4553 19.4136C40.4553 20.8874 41.6095 21.973 43.0257 21.973C44.4425 21.973 45.5967 20.8874 45.5967 19.4136C45.5961 17.9307 44.4419 16.8541 43.0257 16.8541ZM43.0257 20.9656C42.2496 20.9656 41.5806 20.3259 41.5806 19.4142C41.5806 18.4928 42.2502 17.8627 43.0257 17.8627C43.8018 17.8627 44.4708 18.4928 44.4708 19.4142C44.4708 20.3253 43.8018 20.9656 43.0257 20.9656ZM37.4177 16.8541C36.0015 16.8541 34.8473 17.9307 34.8473 19.4136C34.8473 20.8874 36.0015 21.973 37.4177 21.973C38.8344 21.973 39.9887 20.8874 39.9887 19.4136C39.9887 17.9307 38.8344 16.8541 37.4177 16.8541ZM37.4177 20.9656C36.6415 20.9656 35.9726 20.3259 35.9726 19.4142C35.9726 18.4928 36.6421 17.8627 37.4177 17.8627C38.1938 17.8627 38.8627 18.4928 38.8627 19.4142C38.8633 20.3253 38.1938 20.9656 37.4177 20.9656ZM30.7475 17.64V18.7257H33.3474C33.2697 19.3365 33.0662 19.7825 32.7555 20.0924C32.3774 20.4703 31.7855 20.8874 30.7475 20.8874C29.1471 20.8874 27.8959 19.5977 27.8959 17.9981C27.8959 16.3985 29.1471 15.1088 30.7475 15.1088C31.6109 15.1088 32.2413 15.4483 32.7068 15.8846L33.4732 15.1185C32.823 14.498 31.9601 14.0232 30.7475 14.0232C28.5552 14.0232 26.7122 15.8069 26.7122 17.9981C26.7122 20.1893 28.5552 21.973 30.7475 21.973C31.9306 21.973 32.8236 21.5849 33.5214 20.8579C34.2391 20.1405 34.4625 19.1319 34.4625 18.3177C34.4625 18.0661 34.4432 17.8332 34.4041 17.6394L30.7475 17.64ZM58.0278 18.4832C57.8147 17.9114 57.1644 16.8541 55.8356 16.8541C54.5163 16.8541 53.4199 17.8916 53.4199 19.4136C53.4199 20.8483 54.5067 21.973 55.9614 21.973C57.1349 21.973 57.8141 21.2557 58.0959 20.8386L57.2228 20.2567C56.932 20.6834 56.534 20.9644 55.9614 20.9644C55.3894 20.9644 54.9818 20.7026 54.7199 20.1887L58.144 18.7732L58.0278 18.4832ZM54.5356 19.3365C54.5067 18.3472 55.3021 17.8434 55.8747 17.8434C56.3209 17.8434 56.699 18.0667 56.8254 18.3863L54.5356 19.3365ZM51.7521 21.8184H52.8768V14.2952H51.7521V21.8184ZM49.9084 17.4264H49.8699C49.6176 17.1255 49.1323 16.8541 48.5217 16.8541C47.2411 16.8541 46.0676 17.9789 46.0676 19.4238C46.0676 20.8585 47.2411 21.9736 48.5217 21.9736C49.1329 21.9736 49.6176 21.7022 49.8699 21.3923H49.9084V21.7606C49.9084 22.7397 49.3846 23.2633 48.541 23.2633C47.8522 23.2633 47.4253 22.7692 47.2507 22.3522L46.2711 22.7596C46.5522 23.4378 47.2989 24.2719 48.541 24.2719C49.8602 24.2719 50.9759 23.4962 50.9759 21.6053V17.0099H49.909L49.9084 17.4264ZM48.6187 20.9656C47.8426 20.9656 47.1929 20.3157 47.1929 19.4238C47.1929 18.5217 47.8426 17.8627 48.6187 17.8627C49.3846 17.8627 49.9861 18.5217 49.9861 19.4238C49.9861 20.3157 49.3846 20.9656 48.6187 20.9656ZM63.2987 14.2952H60.6067V21.8184H61.7296V18.9682H63.2981C64.5433 18.9682 65.7679 18.0673 65.7679 16.632C65.7679 15.1967 64.5439 14.2952 63.2987 14.2952ZM63.3276 17.9211H61.7296V15.3423H63.3276C64.1675 15.3423 64.6444 16.0374 64.6444 16.632C64.6444 17.2146 64.1675 17.9211 63.3276 17.9211ZM70.2711 16.8408C69.4577 16.8408 68.6153 17.1989 68.2667 17.9927L69.2638 18.4085C69.4769 17.9927 69.8743 17.8567 70.2904 17.8567C70.8714 17.8567 71.4621 18.2051 71.4717 18.8244V18.902C71.2682 18.7859 70.8323 18.6119 70.3 18.6119C69.2253 18.6119 68.1306 19.2023 68.1306 20.3054C68.1306 21.3122 69.0121 21.9604 69.9996 21.9604C70.7546 21.9604 71.1713 21.6216 71.4326 21.2244H71.4711V21.8051H72.5561V18.9207C72.5567 17.5859 71.5584 16.8408 70.2711 16.8408ZM70.135 20.9638C69.7678 20.9638 69.2542 20.7796 69.2542 20.3247C69.2542 19.7439 69.8936 19.5213 70.4457 19.5213C70.9389 19.5213 71.1719 19.6278 71.4717 19.7728C71.3844 20.4703 70.7841 20.9638 70.135 20.9638ZM76.5072 17.0051L75.2193 20.2669H75.1807L73.844 17.0051H72.6338L74.6382 21.5638L73.4954 24.0998H74.6671L77.7565 17.0051H76.5072ZM66.3881 21.8184H67.5111V14.2952H66.3881V21.8184Z" fill="white"/>
<path d="M30.6074 9.8454C30.6074 10.3406 30.4582 10.7347 30.1592 11.029C29.8199 11.3788 29.3772 11.5537 28.8333 11.5537C28.3124 11.5537 27.869 11.3764 27.5051 11.0219C27.1405 10.6668 26.9583 10.2271 26.9583 9.7024C26.9583 9.17709 27.1405 8.73746 27.5051 8.38292C27.869 8.02779 28.3124 7.85052 28.8333 7.85052C29.092 7.85052 29.3393 7.90016 29.5739 7.99884C29.8091 8.09811 29.9974 8.22988 30.1381 8.39474L29.8211 8.70673C29.5823 8.42606 29.2532 8.28601 28.8327 8.28601C28.4525 8.28601 28.1241 8.41719 27.8468 8.67955C27.5694 8.94191 27.4311 9.28286 27.4311 9.70181C27.4311 10.1208 27.5694 10.4617 27.8468 10.7241C28.1241 10.9864 28.4525 11.1176 28.8327 11.1176C29.2358 11.1176 29.5721 10.9858 29.841 10.7217C30.0154 10.5498 30.1165 10.3104 30.1436 10.0038H28.8327V9.57772H30.5815C30.5996 9.67049 30.6074 9.75972 30.6074 9.8454Z" fill="white"/>
<path d="M33.3807 8.36464H31.7372V9.48853H33.2194V9.91457H31.7372V11.0385H33.3807V11.4745H31.2734V7.92914H33.3807V8.36464Z" fill="white"/>
<path d="M35.3363 11.4745H34.8725V8.36464H33.8643V7.92914H36.3445V8.36464H35.3363V11.4745Z" fill="white"/>
<path d="M38.139 11.4745V7.92914H38.6028V11.4745H38.139Z" fill="white"/>
<path d="M40.6597 11.4745H40.1959V8.36464H39.1876V7.92914H41.6679V8.36464H40.6597V11.4745Z" fill="white"/>
<path d="M46.363 11.0166C46.0081 11.3747 45.5671 11.5537 45.0396 11.5537C44.512 11.5537 44.071 11.3747 43.7167 11.0166C43.3618 10.6585 43.1849 10.2201 43.1849 9.70184C43.1849 9.18362 43.3618 8.74517 43.7167 8.38708C44.071 8.029 44.512 7.84937 45.0396 7.84937C45.5641 7.84937 46.0045 8.02959 46.3606 8.38945C46.7167 8.74931 46.8948 9.18657 46.8948 9.70184C46.8948 10.2201 46.7173 10.6585 46.363 11.0166ZM44.059 10.7194C44.3261 10.9853 44.6527 11.1176 45.0396 11.1176C45.4264 11.1176 45.7536 10.9847 46.0201 10.7194C46.2872 10.4535 46.4214 10.1143 46.4214 9.70184C46.4214 9.28939 46.2872 8.95021 46.0201 8.68431C45.7536 8.4184 45.4264 8.28604 45.0396 8.28604C44.6527 8.28604 44.3261 8.41899 44.059 8.68431C43.7925 8.95021 43.6584 9.28939 43.6584 9.70184C43.6584 10.1143 43.7925 10.4535 44.059 10.7194Z" fill="white"/>
<path d="M47.5457 11.4745V7.92914H48.11L49.8642 10.6869H49.884L49.8642 10.0038V7.92914H50.328V11.4745H49.8437L48.0083 8.58268H47.9885L48.0083 9.26576V11.4745H47.5457Z" fill="white"/>
<path d="M30.6074 9.8454C30.6074 10.3406 30.4582 10.7347 30.1592 11.029C29.8199 11.3788 29.3772 11.5537 28.8333 11.5537C28.3124 11.5537 27.869 11.3764 27.5051 11.0219C27.1405 10.6668 26.9583 10.2271 26.9583 9.7024C26.9583 9.17709 27.1405 8.73746 27.5051 8.38292C27.869 8.02779 28.3124 7.85052 28.8333 7.85052C29.092 7.85052 29.3393 7.90016 29.5739 7.99884C29.8091 8.09811 29.9974 8.22988 30.1381 8.39474L29.8211 8.70673C29.5823 8.42606 29.2532 8.28601 28.8327 8.28601C28.4525 8.28601 28.1241 8.41719 27.8468 8.67955C27.5694 8.94191 27.4311 9.28286 27.4311 9.70181C27.4311 10.1208 27.5694 10.4617 27.8468 10.7241C28.1241 10.9864 28.4525 11.1176 28.8327 11.1176C29.2358 11.1176 29.5721 10.9858 29.841 10.7217C30.0154 10.5498 30.1165 10.3104 30.1436 10.0038H28.8327V9.57772H30.5815C30.5996 9.67049 30.6074 9.75972 30.6074 9.8454Z" stroke="white" stroke-width="0.0246957" stroke-miterlimit="10"/>
<path d="M33.3807 8.36464H31.7372V9.48853H33.2194V9.91457H31.7372V11.0385H33.3807V11.4745H31.2734V7.92914H33.3807V8.36464Z" stroke="white" stroke-width="0.0246957" stroke-miterlimit="10"/>
<path d="M35.3363 11.4745H34.8725V8.36464H33.8643V7.92914H36.3445V8.36464H35.3363V11.4745Z" stroke="white" stroke-width="0.0246957" stroke-miterlimit="10"/>
<path d="M38.139 11.4745V7.92914H38.6028V11.4745H38.139Z" stroke="white" stroke-width="0.0246957" stroke-miterlimit="10"/>
<path d="M40.6597 11.4745H40.1959V8.36464H39.1876V7.92914H41.6679V8.36464H40.6597V11.4745Z" stroke="white" stroke-width="0.0246957" stroke-miterlimit="10"/>
<path d="M46.363 11.0166C46.0081 11.3747 45.5671 11.5537 45.0396 11.5537C44.512 11.5537 44.071 11.3747 43.7167 11.0166C43.3618 10.6585 43.1849 10.2201 43.1849 9.70184C43.1849 9.18362 43.3618 8.74517 43.7167 8.38708C44.071 8.029 44.512 7.84937 45.0396 7.84937C45.5641 7.84937 46.0045 8.02959 46.3606 8.38945C46.7167 8.74931 46.8948 9.18657 46.8948 9.70184C46.8948 10.2201 46.7173 10.6585 46.363 11.0166ZM44.059 10.7194C44.3261 10.9853 44.6527 11.1176 45.0396 11.1176C45.4264 11.1176 45.7536 10.9847 46.0201 10.7194C46.2872 10.4535 46.4214 10.1143 46.4214 9.70184C46.4214 9.28939 46.2872 8.95021 46.0201 8.68431C45.7536 8.4184 45.4264 8.28604 45.0396 8.28604C44.6527 8.28604 44.3261 8.41899 44.059 8.68431C43.7925 8.95021 43.6584 9.28939 43.6584 9.70184C43.6584 10.1143 43.7925 10.4535 44.059 10.7194Z" stroke="white" stroke-width="0.0246957" stroke-miterlimit="10"/>
<path d="M47.5457 11.4745V7.92914H48.11L49.8642 10.6869H49.884L49.8642 10.0038V7.92914H50.328V11.4745H49.8437L48.0083 8.58268H47.9885L48.0083 9.26576V11.4745H47.5457Z" stroke="white" stroke-width="0.0246957" stroke-miterlimit="10"/>
<defs>
<filter id="filter0_ii_65_10" x="8.27393" y="7.84937" width="14.7197" height="16.4612" filterUnits="userSpaceOnUse" color-interpolation-filters="sRGB">
<feFlood flood-opacity="0" result="BackgroundImageFix"/>
<feBlend mode="normal" in="SourceGraphic" in2="BackgroundImageFix" result="shape"/>
<feColorMatrix in="SourceAlpha" type="matrix" values="0 0 0 0 0 0 0 0 0 0 0 0 0 0 0 0 0 0 127 0" result="hardAlpha"/>
<feOffset dy="-0.096"/>
<feComposite in2="hardAlpha" operator="arithmetic" k2="-1" k3="1"/>
<feColorMatrix type="matrix" values="0 0 0 0 0 0 0 0 0 0 0 0 0 0 0 0 0 0 0.12 0"/>
<feBlend mode="normal" in2="shape" result="effect1_innerShadow_65_10"/>
<feColorMatrix in="SourceAlpha" type="matrix" values="0 0 0 0 0 0 0 0 0 0 0 0 0 0 0 0 0 0 127 0" result="hardAlpha"/>
<feOffset dy="0.096"/>
<feComposite in2="hardAlpha" operator="arithmetic" k2="-1" k3="1"/>
<feColorMatrix type="matrix" values="0 0 0 0 1 0 0 0 0 1 0 0 0 0 1 0 0 0 0.25 0"/>
<feBlend mode="normal" in2="effect1_innerShadow_65_10" result="effect2_innerShadow_65_10"/>
</filter>
<filter id="filter1_i_65_10" x="8.56909" y="16.0796" width="10.6375" height="8.23096" filterUnits="userSpaceOnUse" color-interpolation-filters="sRGB">
<feFlood flood-opacity="0" result="BackgroundImageFix"/>
<feBlend mode="normal" in="SourceGraphic" in2="BackgroundImageFix" result="shape"/>
<feColorMatrix in="SourceAlpha" type="matrix" values="0 0 0 0 0 0 0 0 0 0 0 0 0 0 0 0 0 0 127 0" result="hardAlpha"/>
<feOffset dy="-0.096"/>
<feComposite in2="hardAlpha" operator="arithmetic" k2="-1" k3="1"/>
<feColorMatrix type="matrix" values="0 0 0 0 0 0 0 0 0 0 0 0 0 0 0 0 0 0 0.08 0"/>
<feBlend mode="normal" in2="shape" result="effect1_innerShadow_65_10"/>
</filter>
<linearGradient id="paint0_linear_65_10" x1="15.8143" y1="8.85304" x2="5.07389" y2="19.5517" gradientUnits="userSpaceOnUse">
<stop stop-color="#00A0FF"/>
<stop offset="0.0066" stop-color="#00A1FF"/>
<stop offset="0.2601" stop-color="#00BEFF"/>
<stop offset="0.5122" stop-color="#00D2FF"/>
<stop offset="0.7604" stop-color="#00DFFF"/>
<stop offset="1" stop-color="#00E3FF"/>
</linearGradient>
<linearGradient id="paint1_linear_65_10" x1="23.485" y1="16.0797" x2="8.05986" y2="16.0797" gradientUnits="userSpaceOnUse">
<stop stop-color="#FFE000"/>
<stop offset="0.4087" stop-color="#FFBD00"/>
<stop offset="0.7754" stop-color="#FFA500"/>
<stop offset="1" stop-color="#FF9C00"/>
</linearGradient>
<linearGradient id="paint2_linear_65_10" x1="17.7442" y1="17.5477" x2="3.1789" y2="32.0564" gradientUnits="userSpaceOnUse">
<stop stop-color="#FF3A44"/>
<stop offset="1" stop-color="#C31162"/>
</linearGradient>
<linearGradient id="paint3_linear_65_10" x1="6.5682" y1="3.39233" x2="13.072" y2="9.87086" gradientUnits="userSpaceOnUse">
<stop stop-color="#32A071"/>
<stop offset="0.0685" stop-color="#2DA771"/>
<stop offset="0.4762" stop-color="#15CF74"/>
<stop offset="0.8009" stop-color="#06E775"/>
<stop offset="1" stop-color="#00F076"/>
</linearGradient>
</defs>
</svg>
